<?xml version="1.0" standalone="no"?>
<!DOCTYPE svg PUBLIC "-//W3C//DTD SVG 20010904//EN"
 "http://www.w3.org/TR/2001/REC-SVG-20010904/DTD/svg10.dtd">
<svg version="1.0" xmlns="http://www.w3.org/2000/svg"
 width="30.000000pt" height="30.000000pt" viewBox="0 0 48.000000 48.000000"
 preserveAspectRatio="xMidYMid meet">

<g transform="translate(0.000000,48.000000) scale(0.100000,-0.100000)"
fill="#c2a83e" stroke="none">
<path d="M130 406 c-14 -8 -32 -27 -40 -43 -8 -15 -21 -37 -30 -47 -8 -11 -9
-16 -2 -12 7 4 12 2 13 -6 0 -7 7 5 15 27 26 73 90 106 140 71 17 -12 22 -12
39 0 29 21 59 17 86 -12 22 -24 22 -26 4 -21 -11 3 -58 9 -105 12 -68 5 -89 3
-105 -9 -18 -14 -17 -14 16 -4 21 6 49 7 65 3 l29 -8 -38 -8 c-39 -9 -87 -36
-87 -49 0 -4 17 -15 38 -24 30 -13 31 -16 9 -11 -17 3 -26 2 -23 -4 3 -5 25
-12 47 -16 29 -5 38 -10 28 -16 -11 -7 -11 -9 -1 -9 7 0 28 10 45 23 27 19 40
22 82 17 48 -6 49 -6 24 -17 -15 -7 -37 -9 -50 -6 -21 6 -22 5 -11 -10 10 -12
19 -14 38 -7 19 8 26 6 34 -10 17 -33 -18 -42 -148 -38 -111 3 -117 2 -117
-17 0 -17 9 -21 60 -27 33 -4 83 -11 110 -16 l50 -8 -31 -17 c-27 -14 -44 -15
-110 -7 -44 5 -94 14 -113 19 -19 6 -37 8 -40 6 -2 -3 2 -5 10 -5 12 0 12 -2
1 -9 -35 -22 152 -52 206 -33 24 8 33 7 43 -4 6 -8 16 -14 22 -14 5 0 3 8 -6
18 -15 17 -14 19 26 41 56 30 72 63 51 103 -15 28 -14 31 5 52 32 34 26 59
-28 116 -46 48 -52 52 -83 46 -39 -8 -61 -9 -108 -1 -21 3 -45 0 -60 -9z m256
-57 c5 -8 -86 -19 -103 -12 -7 3 -13 9 -13 15 0 10 109 7 116 -3z m-107 -23
c6 -7 10 -24 8 -37 -3 -21 -9 -24 -38 -21 -46 4 -99 22 -99 32 0 30 108 52
129 26z m127 -11 c19 -15 19 -15 -1 -30 -29 -23 -99 -16 -103 9 -2 10 2 22 10
27 21 14 72 10 94 -6z m-146 -65 c0 -6 -11 -8 -27 -4 -40 10 -41 14 -5 14 18
0 32 -5 32 -10z m-65 -181 l60 -8 -70 4 c-38 2 -81 8 -95 14 -22 10 -21 10 10
4 19 -3 62 -10 95 -14z"/>
<path d="M234 309 c-10 -17 13 -36 27 -22 12 12 4 33 -11 33 -5 0 -12 -5 -16
-11z"/>
<path d="M370 294 c0 -17 22 -14 28 4 2 7 -3 12 -12 12 -9 0 -16 -7 -16 -16z"/>
<path d="M106 126 c3 -9 13 -16 22 -16 8 0 13 1 11 3 -2 1 -12 9 -22 16 -15
12 -17 12 -11 -3z"/>
</g>
</svg>
